<?xml version="1.0" encoding="UTF-8" standalone="no"?>
<!DOCTYPE svg PUBLIC "-//W3C//DTD SVG 1.1//EN" "http://www.w3.org/Graphics/SVG/1.1/DTD/svg11.dtd">
<svg width="100%" height="100%" viewBox="0 0 1407 1961" version="1.1" xmlns="http://www.w3.org/2000/svg" xmlns:xlink="http://www.w3.org/1999/xlink" xml:space="preserve" xmlns:serif="http://www.serif.com/" style="fill-rule:evenodd;clip-rule:evenodd;stroke-linecap:round;stroke-linejoin:round;stroke-miterlimit:1.5;">
    <g transform="matrix(1,0,0,1,-487.314,-751.619)">
        <g id="Layer1">
            <path d="M521.472,1177.02C521.472,1177.02 514.408,1459.59 515.417,1509.04C516.426,1558.49 541.656,1932.89 541.656,1932.89L633.492,1719.96L570.922,1209.31L521.472,1177.02Z" style="fill:rgb(16,110,189);"/>
            <path d="M548.987,2002.42C548.987,2002.42 523.085,1978.8 507.289,1964.4C500.274,1958.01 498.428,1947.7 502.788,1939.26C507.965,1929.14 515.421,1914.28 523.758,1896.77C539.526,1863.66 536.373,1836.85 536.373,1836.85L526.874,1276.26C526.874,1276.26 526.066,1232.67 515.571,1201.99C507.051,1177.08 496.404,1154.31 492.697,1146.62C491.811,1144.81 491.245,1142.87 491.023,1140.88C490.397,1135.27 489.034,1123.01 488.146,1115.02C487.635,1110.41 489.594,1105.88 493.298,1103.1C515.513,1086.7 592.049,1030.01 595.498,1025.18C599.535,1019.53 595.498,2008.53 595.498,2008.53L548.987,2002.42Z" style="fill:rgb(52,53,73);"/>
            <g transform="matrix(1,0,0,1,0,1)">
                <path d="M923.016,762.258C915.836,763.643 909.933,768.741 907.518,775.643C900.152,796.689 884.928,840.184 884.928,840.184C884.928,840.184 881.144,849.015 867.267,861.629C853.391,874.244 806.716,893.166 806.716,893.166L1061.54,860.368C1061.54,860.368 1048.92,856.583 1033.78,847.753C1018.64,838.923 1013.6,821.262 1013.6,821.262C1013.6,821.262 997.745,784.269 988.982,763.823C985.679,756.116 977.452,751.752 969.219,753.341C955.721,755.946 935.607,759.828 923.016,762.258Z" style="fill:rgb(52,53,73);"/>
            </g>
            <g transform="matrix(-1,0,0,1,2437.18,5.04592)">
                <path d="M924.185,762.032C916.281,763.557 909.784,769.169 907.124,776.767C899.624,798.197 884.928,840.184 884.928,840.184C884.928,840.184 881.144,849.015 867.267,861.629C853.391,874.244 806.716,893.166 806.716,893.166L1061.54,860.368C1061.54,860.368 1048.92,856.583 1033.78,847.753C1018.64,838.923 1013.6,821.262 1013.6,821.262C1013.6,821.262 999.337,787.985 990.391,767.109C986.266,757.484 975.99,752.034 965.708,754.019C952.856,756.499 935.736,759.803 924.185,762.032Z" style="fill:rgb(52,53,73);"/>
            </g>
        </g>
        <g id="Outline">
            <path d="M1894.04,1163.54C1894.04,1163.54 1885.85,2087.49 1884.71,2216.24C1884.62,2226.23 1883.28,2236.17 1880.71,2245.83C1870.15,2284.88 1839.17,2392.58 1801.01,2461.28C1762.82,2530.02 1707.17,2602.86 1687.13,2628.39C1681.9,2635.01 1675.17,2640.28 1667.5,2643.76C1627.13,2661.95 1484.36,2715.94 1219.15,2712C966.693,2708.25 829.141,2666.86 782.941,2649.86C771.207,2645.53 760.515,2638.78 751.558,2630.06C727.581,2606.24 675.75,2549.24 632.56,2462.86C585.123,2367.99 558.534,2286.66 550.251,2259.58C548.374,2253.28 547.398,2246.76 547.352,2240.19C546.565,2130.41 539.526,1135.15 539.526,1135.15C539.526,1135.15 545.834,1048.43 619.946,980.623C694.058,912.818 831.243,879.705 968.429,867.09C1105.62,854.475 1402.06,856.052 1493.52,873.397C1584.98,890.743 1723.74,901.781 1805.74,971.162C1887.73,1040.54 1894.04,1163.54 1894.04,1163.54Z" style="fill:url(#_Linear1);"/>
        </g>
        <g id="Mic-Ports" serif:id="Mic Ports">
            <path d="M861.519,1502.01L1564.16,1502.01C1564.16,1502.01 1647.42,1508.32 1647.42,1582.74" style="fill:none;stroke:black;stroke-width:1px;"/>
            <g transform="matrix(1,0,0,1,-1.26148,-5.04592)">
                <path d="M1572.99,1663.48L866.565,1666C866.565,1666 793.399,1658.43 789.615,1589.05C785.83,1519.67 856.473,1507.05 856.473,1507.05L1576.78,1505.79C1576.78,1505.79 1647.42,1518.41 1647.42,1584C1647.42,1649.6 1572.99,1663.48 1572.99,1663.48Z" style="fill:rgb(16,110,189);"/>
            </g>
            <g transform="matrix(1,0,0,1,0,321.677)">
                <path d="M1572.99,1663.48L866.565,1666C866.565,1666 793.399,1658.43 789.615,1589.05C785.83,1519.67 856.473,1507.05 856.473,1507.05L1576.78,1505.79C1576.78,1505.79 1647.42,1518.41 1647.42,1584C1647.42,1649.6 1572.99,1663.48 1572.99,1663.48Z" style="fill:rgb(16,110,189);"/>
            </g>
            <g transform="matrix(1,0,0,1,2.52296,642.093)">
                <path d="M1572.99,1663.48L866.565,1666C866.565,1666 793.399,1658.43 789.615,1589.05C785.83,1519.67 856.473,1507.05 856.473,1507.05L1576.78,1505.79C1576.78,1505.79 1647.42,1518.41 1647.42,1584C1647.42,1649.6 1572.99,1663.48 1572.99,1663.48Z" style="fill:rgb(16,110,189);"/>
            </g>
            <path d="M1048.97,1321.64C1048.97,1321.64 1023.74,1329.71 1023.74,1350.91C1023.74,1372.1 1049.98,1385.22 1049.98,1385.22L1388.05,1385.22C1388.05,1385.22 1411.27,1376.13 1409.25,1356.96C1407.23,1337.79 1391.08,1323.66 1391.08,1323.66L1048.97,1321.64" style="fill:rgb(10,120,213);"/>
        </g>
    </g>
    <defs>
        <linearGradient id="_Linear1" x1="0" y1="0" x2="1" y2="0" gradientUnits="userSpaceOnUse" gradientTransform="matrix(28.9754,-1692.65,1692.65,28.9754,1241.72,2529.59)"><stop offset="0" style="stop-color:rgb(3,70,122);stop-opacity:1"/><stop offset="0.64" style="stop-color:rgb(3,77,134);stop-opacity:1"/><stop offset="0.83" style="stop-color:rgb(4,95,165);stop-opacity:1"/><stop offset="1" style="stop-color:rgb(5,115,200);stop-opacity:1"/></linearGradient>
    </defs>
</svg>
